<svg viewBox="0 0 164.0 164.0" xmlns="http://www.w3.org/2000/svg" width="100%" height="100%" style="stroke-width: 0px; background-color: white">
  <defs>
    <pattern id="grid" viewBox="0 0 1 1" x="-.05" y="-.05" width="1" height="1" patternUnits="userSpaceOnUse">
      <path style="stroke-width: .1; stroke: #ccc; fill: none" d="M .05 1.1 V .05 H 1.1" />
    </pattern>
    <linearGradient id="grad0" gradientUnits="userSpaceOnUse" x1="-5" y1="0" x2="15" y2="0">
      <stop offset="0" style='stop-color:#fcc; stop-opacity:0' />
      <stop offset="1" style='stop-color:#fcc; stop-opacity:1' />
    </linearGradient>
    <linearGradient id="grad1" gradientUnits="userSpaceOnUse" x1="-5" y1="0" x2="15" y2="0">
      <stop offset="0" style='stop-color:#ccf; stop-opacity:0' />
      <stop offset="1" style='stop-color:#ccf; stop-opacity:1' />
    </linearGradient>
    <linearGradient id="gradO" gradientUnits="userSpaceOnUse" x1="-5" y1="0" x2="15" y2="0">
      <stop offset="0" style='stop-color:#faf; stop-opacity:0' />
      <stop offset="1" style='stop-color:#faf; stop-opacity:1' />
    </linearGradient>
    <path id="arrow-in" d="M -5 -5 H 15 V -8 L 28 0 15 8 V 5 H -5 Z" />
    <path id="arrow-out" d="M -5 -5 H 15 V -8 L 28 0 15 8 V 5 H -5 Z" transform="translate(-25 0)" />
  </defs>
  <g transform='translate(82.0 82.0)'>    <use href='#arrow-in' fill='url(#grad0)' transform='translate(-75 0) rotate(0)' />
    <use href='#arrow-in' fill='url(#grad1)' transform='translate(0 75) rotate(270)' />
    <use href='#arrow-out' fill='url(#gradO)' transform='translate(75 0) rotate(0)' />
    <rect x="-28" y="-18" width="1" height="1" fill="black" />
    <rect x="-27" y="-18" width="1" height="1" fill="black" />
    <rect x="-27" y="-17" width="1" height="1" fill="black" />
    <rect x="-27" y="-16" width="1" height="1" fill="black" />
    <rect x="-25" y="-16" width="1" height="1" fill="black" />
    <rect x="-26" y="-15" width="1" height="1" fill="black" />
    <rect x="-25" y="-15" width="1" height="1" fill="black" />
    <rect x="-23" y="-14" width="1" height="1" fill="black" />
    <rect x="-22" y="-14" width="1" height="1" fill="black" />
    <rect x="-23" y="-13" width="1" height="1" fill="black" />
    <rect x="-21" y="-13" width="1" height="1" fill="black" />
    <rect x="-23" y="-12" width="1" height="1" fill="black" />
    <rect x="-8" y="1" width="1" height="1" fill="black" />
    <rect x="-7" y="1" width="1" height="1" fill="black" />
    <rect x="-8" y="2" width="1" height="1" fill="black" />
    <rect x="-6" y="2" width="1" height="1" fill="black" />
    <rect x="-8" y="3" width="1" height="1" fill="black" />
    <rect x="7" y="16" width="1" height="1" fill="black" />
    <rect x="8" y="16" width="1" height="1" fill="black" />
    <rect x="7" y="17" width="1" height="1" fill="black" />
    <rect x="9" y="17" width="1" height="1" fill="black" />
    <rect x="7" y="18" width="1" height="1" fill="black" />
    <rect x="22" y="31" width="1" height="1" fill="black" />
    <rect x="23" y="31" width="1" height="1" fill="black" />
    <rect x="22" y="32" width="1" height="1" fill="black" />
    <rect x="24" y="32" width="1" height="1" fill="black" />
    <rect x="22" y="33" width="1" height="1" fill="black" />
    <rect x="11" y="35" width="1" height="1" fill="black" />
    <rect x="12" y="35" width="1" height="1" fill="black" />
    <rect x="10" y="36" width="1" height="1" fill="black" />
    <rect x="13" y="36" width="1" height="1" fill="black" />
    <rect x="13" y="37" width="1" height="1" fill="black" />
    <rect x="13" y="38" width="1" height="1" fill="black" />
    <rect x="11" y="39" width="1" height="1" fill="black" />
    <rect x="13" y="39" width="1" height="1" fill="black" />
    <rect x="25" y="39" width="1" height="1" fill="black" />
    <rect x="29" y="39" width="1" height="1" fill="black" />
    <rect x="30" y="39" width="1" height="1" fill="black" />
    <rect x="31" y="39" width="1" height="1" fill="black" />
    <rect x="11" y="40" width="1" height="1" fill="black" />
    <rect x="13" y="40" width="1" height="1" fill="black" />
    <rect x="25" y="40" width="1" height="1" fill="black" />
    <rect x="26" y="40" width="1" height="1" fill="black" />
    <rect x="29" y="40" width="1" height="1" fill="black" />
    <rect x="12" y="41" width="1" height="1" fill="black" />
    <rect x="24" y="41" width="1" height="1" fill="black" />
    <rect x="26" y="41" width="1" height="1" fill="black" />
    <rect x="30" y="41" width="1" height="1" fill="black" />
    <rect x="9" y="44" width="1" height="1" fill="black" />
    <rect x="10" y="44" width="1" height="1" fill="black" />
    <rect x="14" y="44" width="1" height="1" fill="black" />
    <rect x="15" y="44" width="1" height="1" fill="black" />
    <rect x="9" y="45" width="1" height="1" fill="black" />
    <rect x="15" y="45" width="1" height="1" fill="black" />
    <rect x="37" y="45" width="1" height="1" fill="black" />
    <rect x="40" y="45" width="1" height="1" fill="black" />
    <rect x="49" y="45" width="1" height="1" fill="black" />
    <rect x="37" y="46" width="1" height="1" fill="black" />
    <rect x="48" y="46" width="1" height="1" fill="black" />
    <rect x="50" y="46" width="1" height="1" fill="black" />
    <rect x="10" y="47" width="1" height="1" fill="black" />
    <rect x="14" y="47" width="1" height="1" fill="black" />
    <rect x="17" y="47" width="1" height="1" fill="black" />
    <rect x="18" y="47" width="1" height="1" fill="black" />
    <rect x="33" y="47" width="1" height="1" fill="black" />
    <rect x="36" y="47" width="1" height="1" fill="black" />
    <rect x="40" y="47" width="1" height="1" fill="black" />
    <rect x="41" y="47" width="1" height="1" fill="black" />
    <rect x="47" y="47" width="1" height="1" fill="black" />
    <rect x="51" y="47" width="1" height="1" fill="black" />
    <rect x="52" y="47" width="1" height="1" fill="black" />
    <rect x="11" y="48" width="1" height="1" fill="black" />
    <rect x="12" y="48" width="1" height="1" fill="black" />
    <rect x="13" y="48" width="1" height="1" fill="black" />
    <rect x="18" y="48" width="1" height="1" fill="black" />
    <rect x="19" y="48" width="1" height="1" fill="black" />
    <rect x="30" y="48" width="1" height="1" fill="black" />
    <rect x="31" y="48" width="1" height="1" fill="black" />
    <rect x="32" y="48" width="1" height="1" fill="black" />
    <rect x="33" y="48" width="1" height="1" fill="black" />
    <rect x="37" y="48" width="1" height="1" fill="black" />
    <rect x="38" y="48" width="1" height="1" fill="black" />
    <rect x="40" y="48" width="1" height="1" fill="black" />
    <rect x="42" y="48" width="1" height="1" fill="black" />
    <rect x="47" y="48" width="1" height="1" fill="black" />
    <rect x="51" y="48" width="1" height="1" fill="black" />
    <rect x="52" y="48" width="1" height="1" fill="black" />
    <rect x="56" y="48" width="1" height="1" fill="black" />
    <rect x="57" y="48" width="1" height="1" fill="black" />
    <rect x="17" y="49" width="1" height="1" fill="black" />
    <rect x="29" y="49" width="1" height="1" fill="black" />
    <rect x="30" y="49" width="1" height="1" fill="black" />
    <rect x="31" y="49" width="1" height="1" fill="black" />
    <rect x="32" y="49" width="1" height="1" fill="black" />
    <rect x="47" y="49" width="1" height="1" fill="black" />
    <rect x="51" y="49" width="1" height="1" fill="black" />
    <rect x="52" y="49" width="1" height="1" fill="black" />
    <rect x="56" y="49" width="1" height="1" fill="black" />
    <rect x="57" y="49" width="1" height="1" fill="black" />
    <rect x="22" y="50" width="1" height="1" fill="black" />
    <rect x="23" y="50" width="1" height="1" fill="black" />
    <rect x="29" y="50" width="1" height="1" fill="black" />
    <rect x="32" y="50" width="1" height="1" fill="black" />
    <rect x="41" y="50" width="1" height="1" fill="black" />
    <rect x="42" y="50" width="1" height="1" fill="black" />
    <rect x="48" y="50" width="1" height="1" fill="black" />
    <rect x="50" y="50" width="1" height="1" fill="black" />
    <rect x="22" y="51" width="1" height="1" fill="black" />
    <rect x="23" y="51" width="1" height="1" fill="black" />
    <rect x="29" y="51" width="1" height="1" fill="black" />
    <rect x="30" y="51" width="1" height="1" fill="black" />
    <rect x="31" y="51" width="1" height="1" fill="black" />
    <rect x="32" y="51" width="1" height="1" fill="black" />
    <rect x="49" y="51" width="1" height="1" fill="black" />
    <rect x="30" y="52" width="1" height="1" fill="black" />
    <rect x="31" y="52" width="1" height="1" fill="black" />
    <rect x="32" y="52" width="1" height="1" fill="black" />
    <rect x="33" y="52" width="1" height="1" fill="black" />
    <rect x="33" y="53" width="1" height="1" fill="black" />
    <rect x="14" y="55" width="1" height="1" fill="black" />
    <rect x="12" y="56" width="1" height="1" fill="black" />
    <rect x="13" y="56" width="1" height="1" fill="black" />
    <rect x="15" y="56" width="1" height="1" fill="black" />
    <rect x="16" y="56" width="1" height="1" fill="black" />
    <rect x="11" y="58" width="1" height="1" fill="black" />
    <rect x="17" y="58" width="1" height="1" fill="black" />
    <rect x="11" y="60" width="1" height="1" fill="black" />
    <rect x="12" y="60" width="1" height="1" fill="black" />
    <rect x="14" y="60" width="1" height="1" fill="black" />
    <rect x="16" y="60" width="1" height="1" fill="black" />
    <rect x="17" y="60" width="1" height="1" fill="black" />
    <rect x="13" y="69" width="1" height="1" fill="black" />
    <rect x="14" y="69" width="1" height="1" fill="black" />
    <rect x="13" y="70" width="1" height="1" fill="black" />
    <rect x="14" y="70" width="1" height="1" fill="black" />
    <path fill="none" style="stroke-width: .1; stroke: black" d="
    M -75 -75 H 75 V -6 H 69 V 6 H 75 V 75 H 6 V 69 H -6 V 75 H -75 V 6 H -81 V -6 H -75 Z" />
  </g>
</svg>
