<svg viewBox="0 0 68.0 13.0" xmlns="http://www.w3.org/2000/svg" width="1600.0" height="305.882352941">
  <defs>
    <g id='box'>
      <path style='stroke-width: .1; stroke: #ccc; fill: none' d='M 1 0 V 11 M 2 0 V 11 M 3 0 V 11 M 4 0 V 11 M 5 0 V 11 M 6 0 V 11 M 7 0 V 11 M 8 0 V 11 M 9 0 V 11 M 10 0 V 11 M 11 0 V 11 M 0 1 H 12 M 0 2 H 12 M 0 3 H 12 M 0 4 H 12 M 0 5 H 12 M 0 6 H 12 M 0 7 H 12 M 0 8 H 12 M 0 9 H 12 M 0 10 H 12' />
      <rect width='12' height='11' style='stroke-width: .1; stroke: black; fill: none' />
    </g>
  </defs>
  <g transform="translate(1.0 1.0)">
    <rect x="7" y="3" width="1" height="1" fill="#00c" />
    <rect x="8" y="3" width="1" height="1" fill="#00c" />
    <rect x="9" y="3" width="1" height="1" fill="#00c" />
    <rect x="6" y="4" width="1" height="1" fill="#00c" />
    <rect x="9" y="4" width="1" height="1" fill="#00c" />
    <rect x="9" y="5" width="1" height="1" fill="#00c" />
    <rect x="9" y="6" width="1" height="1" fill="#00c" />
    <rect x="2" y="7" width="1" height="1" fill="#a00" />
    <rect x="3" y="7" width="1" height="1" fill="#a00" />
    <rect x="4" y="7" width="1" height="1" fill="#a00" />
    <rect x="6" y="7" width="1" height="1" fill="#00c" />
    <rect x="8" y="7" width="1" height="1" fill="#00c" />
    <rect x="4" y="8" width="1" height="1" fill="#a00" />
    <rect x="3" y="9" width="1" height="1" fill="#a00" />
    <use href="#box" />
  </g>
  <g transform="translate(14.5 1.0)">
    <rect x="8" y="2" width="1" height="1" fill="#00c" />
    <rect x="7" y="3" width="1" height="1" fill="#00c" />
    <rect x="8" y="3" width="1" height="1" fill="#00c" />
    <rect x="9" y="3" width="1" height="1" fill="#00c" />
    <rect x="7" y="4" width="1" height="1" fill="#00c" />
    <rect x="9" y="4" width="1" height="1" fill="#00c" />
    <rect x="10" y="4" width="1" height="1" fill="#00c" />
    <rect x="8" y="5" width="1" height="1" fill="#00c" />
    <rect x="9" y="5" width="1" height="1" fill="#00c" />
    <rect x="10" y="5" width="1" height="1" fill="#00c" />
    <rect x="3" y="6" width="1" height="1" fill="#a00" />
    <rect x="8" y="6" width="1" height="1" fill="#00c" />
    <rect x="9" y="6" width="1" height="1" fill="#00c" />
    <rect x="3" y="7" width="1" height="1" fill="#a00" />
    <rect x="4" y="7" width="1" height="1" fill="#a00" />
    <rect x="5" y="7" width="1" height="1" fill="#a00" />
    <rect x="2" y="8" width="1" height="1" fill="#a00" />
    <rect x="4" y="8" width="1" height="1" fill="#a00" />
    <rect x="5" y="8" width="1" height="1" fill="#a00" />
    <use href="#box" />
  </g>
  <g transform="translate(28.0 1.0)">
    <rect x="7" y="2" width="1" height="1" fill="#00c" />
    <rect x="8" y="2" width="1" height="1" fill="#00c" />
    <rect x="9" y="2" width="1" height="1" fill="#00c" />
    <rect x="7" y="3" width="1" height="1" fill="#00c" />
    <rect x="10" y="3" width="1" height="1" fill="#00c" />
    <rect x="7" y="4" width="1" height="1" fill="#00c" />
    <rect x="7" y="5" width="1" height="1" fill="#00c" />
    <rect x="3" y="6" width="1" height="1" fill="#a00" />
    <rect x="8" y="6" width="1" height="1" fill="#00c" />
    <rect x="10" y="6" width="1" height="1" fill="#00c" />
    <rect x="2" y="7" width="1" height="1" fill="#a00" />
    <rect x="5" y="7" width="1" height="1" fill="#a00" />
    <rect x="5" y="8" width="1" height="1" fill="#a00" />
    <use href="#box" />
  </g>
  <g transform="translate(41.5 1.0)">
    <rect x="8" y="1" width="1" height="1" fill="#00c" />
    <rect x="7" y="2" width="1" height="1" fill="#00c" />
    <rect x="8" y="2" width="1" height="1" fill="#00c" />
    <rect x="9" y="2" width="1" height="1" fill="#00c" />
    <rect x="6" y="3" width="1" height="1" fill="#00c" />
    <rect x="7" y="3" width="1" height="1" fill="#00c" />
    <rect x="9" y="3" width="1" height="1" fill="#00c" />
    <rect x="6" y="4" width="1" height="1" fill="#00c" />
    <rect x="7" y="4" width="1" height="1" fill="#00c" />
    <rect x="8" y="4" width="1" height="1" fill="#00c" />
    <rect x="7" y="5" width="1" height="1" fill="#00c" />
    <rect x="8" y="5" width="1" height="1" fill="#00c" />
    <rect x="4" y="7" width="1" height="1" fill="#a00" />
    <use href="#box" />
  </g>
  <g transform="translate(55.0 1.0)">
    <rect x="7" y="1" width="1" height="1" fill="#00c" />
    <rect x="8" y="1" width="1" height="1" fill="#00c" />
    <rect x="9" y="1" width="1" height="1" fill="#00c" />
    <rect x="6" y="2" width="1" height="1" fill="#00c" />
    <rect x="9" y="2" width="1" height="1" fill="#00c" />
    <rect x="9" y="3" width="1" height="1" fill="#00c" />
    <rect x="9" y="4" width="1" height="1" fill="#00c" />
    <rect x="6" y="5" width="1" height="1" fill="#00c" />
    <rect x="8" y="5" width="1" height="1" fill="#00c" />
    <use href="#box" />
  </g>
</svg>
