<svg viewBox="0 0 164.0 164.0" xmlns="http://www.w3.org/2000/svg" width="100%" height="100%" style="stroke-width: 0px; background-color: white">
  <defs>
    <pattern id="grid" viewBox="0 0 1 1" x="-.05" y="-.05" width="1" height="1" patternUnits="userSpaceOnUse">
      <path style="stroke-width: .1; stroke: #ccc; fill: none" d="M .05 1.1 V .05 H 1.1" />
    </pattern>
    <linearGradient id="grad0" gradientUnits="userSpaceOnUse" x1="-5" y1="0" x2="15" y2="0">
      <stop offset="0" style='stop-color:#fcc; stop-opacity:0' />
      <stop offset="1" style='stop-color:#fcc; stop-opacity:1' />
    </linearGradient>
    <linearGradient id="grad1" gradientUnits="userSpaceOnUse" x1="-5" y1="0" x2="15" y2="0">
      <stop offset="0" style='stop-color:#ccf; stop-opacity:0' />
      <stop offset="1" style='stop-color:#ccf; stop-opacity:1' />
    </linearGradient>
    <linearGradient id="gradO" gradientUnits="userSpaceOnUse" x1="-5" y1="0" x2="15" y2="0">
      <stop offset="0" style='stop-color:#faf; stop-opacity:0' />
      <stop offset="1" style='stop-color:#faf; stop-opacity:1' />
    </linearGradient>
    <path id="arrow-in" d="M -5 -5 H 15 V -8 L 28 0 15 8 V 5 H -5 Z" />
    <path id="arrow-out" d="M -5 -5 H 15 V -8 L 28 0 15 8 V 5 H -5 Z" transform="translate(-25 0)" />
  </defs>
  <g transform='translate(82.0 82.0)'>
    <use href='#arrow-in' fill='url(#grad0)' transform='translate(-75 0) rotate(0)' />
    <use href='#arrow-in' fill='url(#grad1)' transform='translate(0 -75) rotate(90)' />
    <use href='#arrow-out' fill='url(#grad0)' transform='translate(75 0) rotate(0)' />
    <use href='#arrow-out' fill='url(#grad1)' transform='translate(0 75) rotate(90)' />
    <rect x="-1" y="-60" width="1" height="1" fill="#00c" />
    <rect x="1" y="-60" width="1" height="1" fill="#00c" />
    <rect x="2" y="-59" width="1" height="1" fill="#00c" />
    <rect x="2" y="-58" width="1" height="1" fill="#00c" />
    <rect x="-1" y="-57" width="1" height="1" fill="#00c" />
    <rect x="2" y="-57" width="1" height="1" fill="#00c" />
    <rect x="0" y="-56" width="1" height="1" fill="#00c" />
    <rect x="1" y="-56" width="1" height="1" fill="#00c" />
    <rect x="2" y="-56" width="1" height="1" fill="#00c" />
    <rect x="-1" y="-30" width="1" height="1" fill="#00c" />
    <rect x="1" y="-30" width="1" height="1" fill="#00c" />
    <rect x="2" y="-29" width="1" height="1" fill="#00c" />
    <rect x="2" y="-28" width="1" height="1" fill="#00c" />
    <rect x="-1" y="-27" width="1" height="1" fill="#00c" />
    <rect x="2" y="-27" width="1" height="1" fill="#00c" />
    <rect x="0" y="-26" width="1" height="1" fill="#00c" />
    <rect x="1" y="-26" width="1" height="1" fill="#00c" />
    <rect x="2" y="-26" width="1" height="1" fill="#00c" />
    <rect x="-75" y="-4" width="1" height="1" fill="#a00" />
    <rect x="-72" y="-4" width="1" height="1" fill="#a00" />
    <rect x="-45" y="-4" width="1" height="1" fill="#a00" />
    <rect x="-42" y="-4" width="1" height="1" fill="#a00" />
    <rect x="-15" y="-4" width="1" height="1" fill="#a00" />
    <rect x="-12" y="-4" width="1" height="1" fill="#a00" />
    <rect x="15" y="-4" width="1" height="1" fill="#a00" />
    <rect x="18" y="-4" width="1" height="1" fill="#a00" />
    <rect x="45" y="-4" width="1" height="1" fill="#a00" />
    <rect x="48" y="-4" width="1" height="1" fill="#a00" />
    <rect x="-71" y="-3" width="1" height="1" fill="#a00" />
    <rect x="-41" y="-3" width="1" height="1" fill="#a00" />
    <rect x="-11" y="-3" width="1" height="1" fill="#a00" />
    <rect x="19" y="-3" width="1" height="1" fill="#a00" />
    <rect x="49" y="-3" width="1" height="1" fill="#a00" />
    <rect x="-75" y="-2" width="1" height="1" fill="#a00" />
    <rect x="-71" y="-2" width="1" height="1" fill="#a00" />
    <rect x="-45" y="-2" width="1" height="1" fill="#a00" />
    <rect x="-41" y="-2" width="1" height="1" fill="#a00" />
    <rect x="-15" y="-2" width="1" height="1" fill="#a00" />
    <rect x="-11" y="-2" width="1" height="1" fill="#a00" />
    <rect x="15" y="-2" width="1" height="1" fill="#a00" />
    <rect x="19" y="-2" width="1" height="1" fill="#a00" />
    <rect x="45" y="-2" width="1" height="1" fill="#a00" />
    <rect x="49" y="-2" width="1" height="1" fill="#a00" />
    <rect x="-74" y="-1" width="1" height="1" fill="#a00" />
    <rect x="-73" y="-1" width="1" height="1" fill="#a00" />
    <rect x="-72" y="-1" width="1" height="1" fill="#a00" />
    <rect x="-71" y="-1" width="1" height="1" fill="#a00" />
    <rect x="-44" y="-1" width="1" height="1" fill="#a00" />
    <rect x="-43" y="-1" width="1" height="1" fill="#a00" />
    <rect x="-42" y="-1" width="1" height="1" fill="#a00" />
    <rect x="-41" y="-1" width="1" height="1" fill="#a00" />
    <rect x="-14" y="-1" width="1" height="1" fill="#a00" />
    <rect x="-13" y="-1" width="1" height="1" fill="#a00" />
    <rect x="-12" y="-1" width="1" height="1" fill="#a00" />
    <rect x="-11" y="-1" width="1" height="1" fill="#a00" />
    <rect x="16" y="-1" width="1" height="1" fill="#a00" />
    <rect x="17" y="-1" width="1" height="1" fill="#a00" />
    <rect x="18" y="-1" width="1" height="1" fill="#a00" />
    <rect x="19" y="-1" width="1" height="1" fill="#a00" />
    <rect x="46" y="-1" width="1" height="1" fill="#a00" />
    <rect x="47" y="-1" width="1" height="1" fill="#a00" />
    <rect x="48" y="-1" width="1" height="1" fill="#a00" />
    <rect x="49" y="-1" width="1" height="1" fill="#a00" />
    <rect x="-1" y="0" width="1" height="1" fill="#00c" />
    <rect x="1" y="0" width="1" height="1" fill="#00c" />
    <rect x="2" y="1" width="1" height="1" fill="#00c" />
    <rect x="2" y="2" width="1" height="1" fill="#00c" />
    <rect x="-1" y="3" width="1" height="1" fill="#00c" />
    <rect x="2" y="3" width="1" height="1" fill="#00c" />
    <rect x="0" y="4" width="1" height="1" fill="#00c" />
    <rect x="1" y="4" width="1" height="1" fill="#00c" />
    <rect x="2" y="4" width="1" height="1" fill="#00c" />
    <rect x="-1" y="30" width="1" height="1" fill="#00c" />
    <rect x="1" y="30" width="1" height="1" fill="#00c" />
    <rect x="2" y="31" width="1" height="1" fill="#00c" />
    <rect x="2" y="32" width="1" height="1" fill="#00c" />
    <rect x="-1" y="33" width="1" height="1" fill="#00c" />
    <rect x="2" y="33" width="1" height="1" fill="#00c" />
    <rect x="0" y="34" width="1" height="1" fill="#00c" />
    <rect x="1" y="34" width="1" height="1" fill="#00c" />
    <rect x="2" y="34" width="1" height="1" fill="#00c" />
    <rect x="-1" y="60" width="1" height="1" fill="#00c" />
    <rect x="1" y="60" width="1" height="1" fill="#00c" />
    <rect x="2" y="61" width="1" height="1" fill="#00c" />
    <rect x="2" y="62" width="1" height="1" fill="#00c" />
    <rect x="-1" y="63" width="1" height="1" fill="#00c" />
    <rect x="2" y="63" width="1" height="1" fill="#00c" />
    <rect x="0" y="64" width="1" height="1" fill="#00c" />
    <rect x="1" y="64" width="1" height="1" fill="#00c" />
    <rect x="2" y="64" width="1" height="1" fill="#00c" />
    <path fill="none" style="stroke-width: .1; stroke: black" d="
    M -75 -75 H -6 V -69 H 6 V -75 H 75 V -6 H 69 V 6 H 75 V 75 H 6 V 81 H -6 V 75 H -75 V 6 H -81 V -6 H -75 Z" />
  </g>
</svg>
