<svg viewBox="-1.0 -1.0 22.0 22.0" xmlns="http://www.w3.org/2000/svg" width="100%" height="100%"
  style="stroke-width: 0px; background-color: white">
  <style>
    :root {
      --main-color: black;
    }
  </style>
  <style>
    text {
      font-family: Arial, sans-serif;
    }
  </style>
  <defs>
    <path id="wire" style="fill: var(--main-color)" d="
      M -.51 .1 H -.1 L 0 0 -.1 -.1 H -.51
      M 0 .1 H .51 V -.1 H 0 L .1 0" />
    <g id="slow-wire">
      <line x1="-.51" y1="0" x2=".51" y2="0" style="stroke-width: .2; stroke: var(--main-color)" />
      <rect x="-.4" y="-.15" width=".8" height=".3" style="fill: white" />
      <path style="stroke-width: .07; stroke: var(--main-color); fill: none" d="
        M -.4 -.1 V .15 H .25 V 0 H -.25 V -.15 H .4 V .1" />
    </g>
    <path id="cross" style="stroke-width: .2; stroke: var(--main-color)" d="
      M -.51 0 H .51 M 0 -.51 V -.15 M 0 .15 V .51" />
    <g id="terminator">
      <line x1="-.51" y1="0" x2="0" y2="0" style="stroke-width: .2; stroke: var(--main-color)" />
      <line x1="0" y1="-.3" x2="0" y2=".3" style="stroke-width: .1; stroke: var(--main-color)" />
    </g>
    <g id="and-en-e">
      <line x1="-.51" y1="0" x2=".51" y2="0" style="stroke-width: .2; stroke: var(--main-color)" />
      <line x1="0" y1=".51" x2="0" y2="0" style="stroke-width: .2; stroke: var(--main-color)" />
      <path id="and-base" style="stroke-width: .07; stroke: var(--main-color); fill: white" d="
        M -.3 -.25 L .05 -.25 A .25 .25 180 0 1 .05 .25 L .05 .25 L -.3 .25 Z" />
    </g>
    <use id="and-es-e" href="#and-en-e" transform="scale(1 -1)" />
    <g id="and-ew-n">
      <line x1="-.51" y1="0" x2=".51" y2="0" style="stroke-width: .2; stroke: var(--main-color)" />
      <line x1="0" y1="-.51" x2="0" y2="0" style="stroke-width: .2; stroke: var(--main-color)" />
      <use href="#and-base" transform="rotate(-90)" />
    </g>
    <text id="and-text" text-anchor="middle" dominant-baseline="central" font-size=".4">&amp;</text>
    <g id="or-en-e">
      <line x1="-.51" y1="0" x2=".51" y2="0" style="stroke-width: .2; stroke: var(--main-color)" />
      <line x1="0" y1=".51" x2="0" y2="0" style="stroke-width: .2; stroke: var(--main-color)" />
      <path style="stroke-width: .07; stroke: var(--main-color); fill: white" d="
        M 0 -.25 Q .25 -.25 .4 0 Q .25 .25 .0 .25 L -.3 .25 A .5 .5 0 0 0 -.3 -.25 Z" />
    </g>
    <text id="or-text" text-anchor="middle" dominant-baseline="central" font-size=".4">∨</text>
    <g id="not">
      <line x1="-.51" y1="0" x2="0" y2="0" style="stroke-width: .2; stroke: var(--main-color)" />
      <line x1=".3" y1="0" x2=".51" y2="0" style="stroke-width: .2; stroke: var(--main-color)" />
      <path style="stroke-width: .07; stroke: var(--main-color); fill: white" d="
        M -.25 -.3 L .25 0 -.25 .3 Z" />
      <circle cx=".3" cy="0" r=".1" style="stroke-width: .04; stroke: var(--main-color); fill: white" />
      <!--
      <text x="-.07" text-anchor="middle" dominant-baseline="central" font-size=".4">¬</text>
      -->
    </g>
    <path id="turn-e-s" style="stroke-width: .2; stroke: var(--main-color); fill: none" d="
      M -.51 0 H -.4 A .4 .4 90 0 1 0 .4 V .51" />
    <use id="turn-e-n" href="#turn-e-s" transform="scale(1 -1)" />
    <g id="slow-turn-e-s">
      <path style="stroke-width: .2; stroke: var(--main-color); fill: none" d="
        M -.51 0 H -.5 C -.3 0 -.05 -.45 .2 -.2 S 0 .3 0 .5 V .51" />
      <!--
      <use href="#turn-e-s" />
      <path style="stroke-width: .05; stroke: var(- -main-color); fill: white" d="
        M -.4 -.15 A .55 .55 90 0 1 .15 .4 H -.15 A .25 .25 90 0 0 -.4 .15 Z" />
      <path style="stroke-width: .05; stroke: var(- -main-color); fill: none" d="M 0 -.15 L .15 .03 0 .15"
        transform="translate(-.4 .4) rotate(30) translate(-.05 -.4)" />
      <path style="stroke-width: .05; stroke: var(- -main-color); fill: none" d="M 0 -.15 L .15 .03 0 .15"
        transform="translate(-.4 .4) rotate(60) translate(-.05 -.4)" />
      -->
    </g>
    <g id="fork-e-es">
      <use href="#turn-e-s" />
      <path id="wire" style="fill: var(--main-color)" d="
        M -.51 .1 H .05 L .15 0 .05 -.1 H -.51
        M .15 .1 H .51 V -.1 H .15 L .25 0" />
    </g>
    <use id="fork-e-en" href="#fork-e-es" transform="scale(1 -1)" />
    <g id="half-adder-ee-ee">
      <path style="stroke-width: .2; stroke: var(--main-color)" d="
        M -1.01 .5 H -.5 M .5 .5 H 1.01
        M -1.01 -.5 H -.5 M .5 -.5 H 1.01" />
      <rect x="-.8" y="-.8" width="1.6" height="1.6"
        style="stroke-width: .07; stroke: var(--main-color); fill: white" />
      <text x=".5" y="-.5" text-anchor="middle" dominant-baseline="central" font-size=".4">⊕</text>
      <!--
      <text x=".5" y=".5" text-anchor="middle" dominant-baseline="central" font-size=".4">&amp;</text>
      -->
    </g>
    <g id="half-adder-ee-es">
      <path style="stroke-width: .2; stroke: var(--main-color)" d="
        M -1.01 .5 H -.5 M .5 .5 V 1.01
        M -1.01 -.5 H -.5 M .5 -.5 H 1.01" />
      <rect x="-.8" y="-.8" width="1.6" height="1.6"
        style="stroke-width: .07; stroke: var(--main-color); fill: white" />
      <text x=".5" y="-.5" text-anchor="middle" dominant-baseline="central" font-size=".4">⊕</text>
      <!--
      <text x=".5" y=".5" text-anchor="middle" dominant-baseline="central" font-size=".4">&amp;</text>
      -->
    </g>
    <text id="half-adder-text" text-anchor="middle" dominant-baseline="central" font-size=".4">H-A</text>
    <g id="teleport-out">
      <line x1="-.51" y1="0" x2="-.4" y2="0" style="stroke-width: .2; stroke: var(--main-color)" />
      <path id="wire" style="fill: var(--main-color); stroke-width: .07; stroke: var(--main-color)" d="
        M -.4 0 L -.45 .2 -.1 0 -.45 -.2 Z" />
    </g>
    <g id="teleport-in">
      <line x1=".51" y1="0" x2=".05" y2="0" style="stroke-width: .2; stroke: var(--main-color)" />
      <path id="wire" style="fill: var(--main-color); stroke-width: .07; stroke: var(--main-color)" d="
        M -.2 0 L -.25 .2 .1 0 -.25 -.2 Z" transform="translate(0.45 0)" />
    </g>
  </defs>
  <rect x="-.5" y="-.5" width="21" height="21" fill="white" stroke-dashoffset=".09" stroke-dasharray=".18 .32"
    style="stroke-width: .05; stroke: black" />
  <use href="#turn-e-s" transform="translate(20.0 20.0) rotate(90)" />
  <use href="#cross" transform="translate(19.0 20.0) rotate(90)" />
  <use href="#cross" transform="translate(18.0 20.0) rotate(90)" />
  <use href="#slow-wire" transform="translate(17.0 20.0) rotate(180)" />
  <use href="#slow-wire" transform="translate(16.0 20.0) rotate(180)" />
  <use href="#slow-wire" transform="translate(15.0 20.0) rotate(180)" />
  <use href="#slow-wire" transform="translate(14.0 20.0) rotate(180)" />
  <use href="#slow-wire" transform="translate(13.0 20.0) rotate(180)" />
  <use href="#slow-wire" transform="translate(12.0 20.0) rotate(180)" />
  <use href="#slow-wire" transform="translate(11.0 20.0) rotate(180)" />
  <use href="#slow-wire" transform="translate(10.0 20.0) rotate(180)" />
  <use href="#slow-wire" transform="translate(9.0 20.0) rotate(180)" />
  <use href="#slow-wire" transform="translate(8.0 20.0) rotate(180)" />
  <use href="#slow-wire" transform="translate(7.0 20.0) rotate(180)" />
  <use href="#slow-wire" transform="translate(6.0 20.0) rotate(180)" />
  <use href="#slow-wire" transform="translate(5.0 20.0) rotate(180)" />
  <use href="#slow-wire" transform="translate(4.0 20.0) rotate(180)" />
  <use href="#slow-wire" transform="translate(3.0 20.0) rotate(180)" />
  <use href="#cross" transform="translate(2.0 20.0) rotate(180)" />
  <use href="#cross" transform="translate(1.0 20.0) rotate(180)" />
  <use href="#turn-e-s" transform="translate(0.0 20.0) rotate(180)" />
  <use href="#cross" transform="translate(20.0 19.0) rotate(90)" />
  <use href="#cross" transform="translate(19.0 19.0) rotate(90)" />
  <use href="#fork-e-en" transform="translate(18.0 19.0) rotate(180)" />
  <use href="#wire" transform="translate(15.0 19.0) rotate(180)" />
  <use href="#wire" transform="translate(12.0 19.0) rotate(180)" />
  <use href="#wire" transform="translate(11.0 19.0) rotate(180)" />
  <use href="#wire" transform="translate(10.0 19.0) rotate(180)" />
  <use href="#wire" transform="translate(9.0 19.0) rotate(180)" />
  <use href="#wire" transform="translate(8.0 19.0) rotate(180)" />
  <use href="#turn-e-s" transform="translate(7.0 19.0) rotate(180)" />
  <use href="#turn-e-s" transform="translate(6.0 19.0) rotate(90)" />
  <use href="#wire" transform="translate(5.0 19.0) rotate(180)" />
  <use href="#wire" transform="translate(4.0 19.0) rotate(180)" />
  <use href="#wire" transform="translate(3.0 19.0) rotate(180)" />
  <use href="#cross" transform="translate(2.0 19.0) rotate(180)" />
  <use href="#cross" transform="translate(1.0 19.0) rotate(180)" />
  <use href="#cross" transform="translate(0.0 19.0) rotate(180)" />
  <use href="#cross" transform="translate(20.0 18.0) rotate(90)" />
  <use href="#cross" transform="translate(19.0 18.0) rotate(90)" />
  <use href="#wire" transform="translate(18.0 18.0) rotate(180)" />
  <use href="#half-adder-ee-es" transform="translate(16.5 18.5) rotate(180)" />
  <use href="#half-adder-text" transform="translate(16.5 18.5) rotate(0)" />
  <use href="#and-text" transform="translate(16.0 18.0) rotate(0)" />
  <use href="#turn-e-s" transform="translate(15.0 18.0) rotate(90)" />
  <use href="#half-adder-ee-ee" transform="translate(13.5 18.5) rotate(180)" />
  <use href="#half-adder-text" transform="translate(13.5 18.5) rotate(0)" />
  <use href="#and-text" transform="translate(13.0 18.0) rotate(0)" />
  <use href="#or-en-e" transform="translate(12.0 18.0) rotate(180)" />
  <use href="#or-text" transform="translate(12.0 18.0) rotate(0)" />
  <use href="#wire" transform="translate(11.0 18.0) rotate(180)" />
  <use href="#wire" transform="translate(8.0 18.0) rotate(180)" />
  <use href="#cross" transform="translate(7.0 18.0) rotate(180)" />
  <use href="#cross" transform="translate(6.0 18.0) rotate(90)" />
  <use href="#wire" transform="translate(5.0 18.0) rotate(180)" />
  <use href="#turn-e-s" transform="translate(4.0 18.0) rotate(180)" />
  <use href="#wire" transform="translate(2.0 18.0) rotate(270)" />
  <use href="#fork-e-en" transform="translate(1.0 18.0) rotate(270)" />
  <use href="#cross" transform="translate(0.0 18.0) rotate(180)" />
  <use href="#slow-wire" transform="translate(20.0 17.0) rotate(90)" />
  <use href="#wire" transform="translate(19.0 17.0) rotate(90)" />
  <use href="#turn-e-n" transform="translate(16.0 17.0) rotate(270)" />
  <use href="#cross" transform="translate(15.0 17.0) rotate(90)" />
  <use href="#wire" transform="translate(14.0 17.0) rotate(180)" />
  <use href="#wire" transform="translate(13.0 17.0) rotate(180)" />
  <use href="#turn-e-n" transform="translate(12.0 17.0) rotate(180)" />
  <use href="#turn-e-s" transform="translate(11.0 17.0) rotate(90)" />
  <use href="#half-adder-ee-ee" transform="translate(9.5 17.5) rotate(180)" />
  <use href="#half-adder-text" transform="translate(9.5 17.5) rotate(0)" />
  <use href="#and-text" transform="translate(9.0 17.0) rotate(0)" />
  <use href="#or-en-e" transform="translate(8.0 17.0) rotate(180)" />
  <use href="#or-text" transform="translate(8.0 17.0) rotate(0)" />
  <use href="#cross" transform="translate(7.0 17.0) rotate(180)" />
  <use href="#cross" transform="translate(6.0 17.0) rotate(90)" />
  <use href="#turn-e-s" transform="translate(5.0 17.0) rotate(180)" />
  <use href="#wire" transform="translate(4.0 17.0) rotate(270)" />
  <use href="#slow-wire" transform="translate(0.0 17.0) rotate(270)" />
  <use href="#slow-wire" transform="translate(20.0 16.0) rotate(90)" />
  <use href="#wire" transform="translate(19.0 16.0) rotate(90)" />
  <use href="#turn-e-s" transform="translate(18.0 16.0) rotate(90)" />
  <use href="#wire" transform="translate(17.0 16.0) rotate(180)" />
  <use href="#wire" transform="translate(16.0 16.0) rotate(180)" />
  <use href="#cross" transform="translate(15.0 16.0) rotate(90)" />
  <use href="#wire" transform="translate(14.0 16.0) rotate(180)" />
  <use href="#wire" transform="translate(13.0 16.0) rotate(180)" />
  <use href="#wire" transform="translate(12.0 16.0) rotate(180)" />
  <use href="#turn-e-n" transform="translate(11.0 16.0) rotate(180)" />
  <use href="#wire" transform="translate(8.0 16.0) rotate(90)" />
  <use href="#wire" transform="translate(7.0 16.0) rotate(270)" />
  <use href="#wire" transform="translate(6.0 16.0) rotate(90)" />
  <use href="#wire" transform="translate(5.0 16.0) rotate(270)" />
  <use href="#wire" transform="translate(4.0 16.0) rotate(270)" />
  <use href="#turn-e-n" transform="translate(3.0 16.0) rotate(0)" />
  <use href="#half-adder-ee-es" transform="translate(1.5 16.5) rotate(270)" />
  <use href="#half-adder-text" transform="translate(1.5 16.5) rotate(0)" />
  <use href="#and-text" transform="translate(2.0 16.0) rotate(0)" />
  <use href="#slow-wire" transform="translate(0.0 16.0) rotate(270)" />
  <use href="#slow-wire" transform="translate(20.0 15.0) rotate(90)" />
  <use href="#wire" transform="translate(19.0 15.0) rotate(90)" />
  <use href="#wire" transform="translate(18.0 15.0) rotate(90)" />
  <use href="#turn-e-s" transform="translate(17.0 15.0) rotate(90)" />
  <use href="#wire" transform="translate(16.0 15.0) rotate(180)" />
  <use href="#cross" transform="translate(15.0 15.0) rotate(90)" />
  <use href="#wire" transform="translate(14.0 15.0) rotate(180)" />
  <use href="#wire" transform="translate(13.0 15.0) rotate(180)" />
  <use href="#wire" transform="translate(12.0 15.0) rotate(180)" />
  <use href="#wire" transform="translate(11.0 15.0) rotate(180)" />
  <use href="#wire" transform="translate(10.0 15.0) rotate(180)" />
  <use href="#wire" transform="translate(9.0 15.0) rotate(180)" />
  <use href="#turn-e-n" transform="translate(8.0 15.0) rotate(180)" />
  <use href="#turn-e-n" transform="translate(7.0 15.0) rotate(270)" />
  <use href="#cross" transform="translate(6.0 15.0) rotate(90)" />
  <use href="#cross" transform="translate(5.0 15.0) rotate(180)" />
  <use href="#cross" transform="translate(4.0 15.0) rotate(180)" />
  <use href="#cross" transform="translate(3.0 15.0) rotate(180)" />
  <use href="#turn-e-s" transform="translate(2.0 15.0) rotate(180)" />
  <use href="#wire" transform="translate(1.0 15.0) rotate(270)" />
  <use href="#slow-wire" transform="translate(0.0 15.0) rotate(270)" />
  <use href="#slow-wire" transform="translate(20.0 14.0) rotate(90)" />
  <use href="#turn-e-s" transform="translate(19.0 14.0) rotate(0)" />
  <use href="#cross" transform="translate(18.0 14.0) rotate(0)" />
  <use href="#cross" transform="translate(17.0 14.0) rotate(0)" />
  <use href="#turn-e-n" transform="translate(16.0 14.0) rotate(90)" />
  <use href="#wire" transform="translate(15.0 14.0) rotate(90)" />
  <use href="#turn-e-s" transform="translate(14.0 14.0) rotate(90)" />
  <use href="#wire" transform="translate(13.0 14.0) rotate(180)" />
  <use href="#wire" transform="translate(12.0 14.0) rotate(180)" />
  <use href="#wire" transform="translate(11.0 14.0) rotate(180)" />
  <use href="#wire" transform="translate(10.0 14.0) rotate(180)" />
  <use href="#wire" transform="translate(9.0 14.0) rotate(180)" />
  <use href="#wire" transform="translate(8.0 14.0) rotate(180)" />
  <use href="#wire" transform="translate(7.0 14.0) rotate(180)" />
  <use href="#turn-e-n" transform="translate(6.0 14.0) rotate(180)" />
  <use href="#wire" transform="translate(5.0 14.0) rotate(270)" />
  <use href="#wire" transform="translate(4.0 14.0) rotate(270)" />
  <use href="#wire" transform="translate(3.0 14.0) rotate(270)" />
  <use href="#slow-wire" transform="translate(0.0 14.0) rotate(270)" />
  <use href="#slow-wire" transform="translate(20.0 13.0) rotate(90)" />
  <use href="#turn-e-s" transform="translate(19.0 13.0) rotate(90)" />
  <use href="#cross" transform="translate(18.0 13.0) rotate(90)" />
  <use href="#cross" transform="translate(17.0 13.0) rotate(90)" />
  <use href="#cross" transform="translate(16.0 13.0) rotate(90)" />
  <use href="#turn-e-n" transform="translate(15.0 13.0) rotate(180)" />
  <use href="#fork-e-es" transform="translate(14.0 13.0) rotate(90)" />
  <use href="#wire" transform="translate(13.0 13.0) rotate(180)" />
  <use href="#wire" transform="translate(12.0 13.0) rotate(180)" />
  <use href="#wire" transform="translate(11.0 13.0) rotate(180)" />
  <use href="#wire" transform="translate(10.0 13.0) rotate(180)" />
  <use href="#wire" transform="translate(9.0 13.0) rotate(180)" />
  <use href="#wire" transform="translate(8.0 13.0) rotate(180)" />
  <use href="#wire" transform="translate(7.0 13.0) rotate(180)" />
  <use href="#terminator" transform="translate(6.0 13.0) rotate(180)" />
  <use href="#wire" transform="translate(5.0 13.0) rotate(270)" />
  <use href="#wire" transform="translate(4.0 13.0) rotate(270)" />
  <use href="#wire" transform="translate(3.0 13.0) rotate(270)" />
  <use href="#half-adder-ee-ee" transform="translate(1.5 13.5) rotate(270)" />
  <use href="#half-adder-text" transform="translate(1.5 13.5) rotate(0)" />
  <use href="#and-text" transform="translate(2.0 13.0) rotate(0)" />
  <use href="#slow-wire" transform="translate(0.0 13.0) rotate(270)" />
  <use href="#slow-wire" transform="translate(20.0 12.0) rotate(90)" />
  <use href="#wire" transform="translate(19.0 12.0) rotate(90)" />
  <use href="#wire" transform="translate(18.0 12.0) rotate(90)" />
  <use href="#wire" transform="translate(17.0 12.0) rotate(90)" />
  <use href="#turn-e-s" transform="translate(16.0 12.0) rotate(0)" />
  <use href="#turn-e-n" transform="translate(15.0 12.0) rotate(90)" />
  <use href="#fork-e-es" transform="translate(14.0 12.0) rotate(90)" />
  <use href="#wire" transform="translate(13.0 12.0) rotate(180)" />
  <use href="#wire" transform="translate(12.0 12.0) rotate(180)" />
  <use href="#wire" transform="translate(11.0 12.0) rotate(180)" />
  <use href="#wire" transform="translate(10.0 12.0) rotate(180)" />
  <use href="#wire" transform="translate(9.0 12.0) rotate(180)" />
  <use href="#wire" transform="translate(8.0 12.0) rotate(180)" />
  <use href="#wire" transform="translate(7.0 12.0) rotate(180)" />
  <use href="#terminator" transform="translate(6.0 12.0) rotate(180)" />
  <use href="#wire" transform="translate(5.0 12.0) rotate(270)" />
  <use href="#wire" transform="translate(4.0 12.0) rotate(270)" />
  <use href="#turn-e-n" transform="translate(3.0 12.0) rotate(270)" />
  <use href="#or-en-e" transform="translate(2.0 12.0) rotate(270)" />
  <use href="#or-text" transform="translate(2.0 12.0) rotate(0)" />
  <use href="#wire" transform="translate(1.0 12.0) rotate(270)" />
  <use href="#slow-wire" transform="translate(0.0 12.0) rotate(270)" />
  <use href="#slow-wire" transform="translate(20.0 11.0) rotate(90)" />
  <use href="#wire" transform="translate(19.0 11.0) rotate(90)" />
  <use href="#wire" transform="translate(15.0 11.0) rotate(90)" />
  <use href="#fork-e-es" transform="translate(14.0 11.0) rotate(90)" />
  <use href="#wire" transform="translate(13.0 11.0) rotate(180)" />
  <use href="#wire" transform="translate(12.0 11.0) rotate(180)" />
  <use href="#wire" transform="translate(11.0 11.0) rotate(180)" />
  <use href="#wire" transform="translate(10.0 11.0) rotate(180)" />
  <use href="#wire" transform="translate(9.0 11.0) rotate(180)" />
  <use href="#wire" transform="translate(8.0 11.0) rotate(180)" />
  <use href="#wire" transform="translate(7.0 11.0) rotate(180)" />
  <use href="#terminator" transform="translate(6.0 11.0) rotate(180)" />
  <use href="#wire" transform="translate(5.0 11.0) rotate(270)" />
  <use href="#turn-e-n" transform="translate(4.0 11.0) rotate(270)" />
  <use href="#turn-e-s" transform="translate(3.0 11.0) rotate(180)" />
  <use href="#wire" transform="translate(2.0 11.0) rotate(270)" />
  <use href="#wire" transform="translate(1.0 11.0) rotate(270)" />
  <use href="#slow-wire" transform="translate(0.0 11.0) rotate(270)" />
  <use href="#slow-wire" transform="translate(20.0 10.0) rotate(90)" />
  <use href="#wire" transform="translate(19.0 10.0) rotate(90)" />
  <use href="#half-adder-ee-ee" transform="translate(17.5 10.5) rotate(90)" />
  <use href="#half-adder-text" transform="translate(17.5 10.5) rotate(0)" />
  <use href="#and-text" transform="translate(17.0 11.0) rotate(0)" />
  <use href="#wire" transform="translate(15.0 10.0) rotate(90)" />
  <use href="#fork-e-es" transform="translate(14.0 10.0) rotate(90)" />
  <use href="#wire" transform="translate(13.0 10.0) rotate(180)" />
  <use href="#wire" transform="translate(12.0 10.0) rotate(180)" />
  <use href="#wire" transform="translate(11.0 10.0) rotate(180)" />
  <use href="#wire" transform="translate(10.0 10.0) rotate(180)" />
  <use href="#wire" transform="translate(9.0 10.0) rotate(180)" />
  <use href="#wire" transform="translate(8.0 10.0) rotate(180)" />
  <use href="#wire" transform="translate(7.0 10.0) rotate(180)" />
  <use href="#terminator" transform="translate(6.0 10.0) rotate(180)" />
  <use href="#wire" transform="translate(5.0 10.0) rotate(270)" />
  <use href="#wire" transform="translate(1.0 10.0) rotate(270)" />
  <use href="#slow-wire" transform="translate(0.0 10.0) rotate(270)" />
  <use href="#slow-wire" transform="translate(20.0 9.0) rotate(90)" />
  <use href="#wire" transform="translate(19.0 9.0) rotate(90)" />
  <use href="#wire" transform="translate(18.0 9.0) rotate(90)" />
  <use href="#turn-e-s" transform="translate(17.0 9.0) rotate(0)" />
  <use href="#turn-e-n" transform="translate(16.0 9.0) rotate(90)" />
  <use href="#wire" transform="translate(15.0 9.0) rotate(90)" />
  <use href="#fork-e-es" transform="translate(14.0 9.0) rotate(90)" />
  <use href="#wire" transform="translate(13.0 9.0) rotate(180)" />
  <use href="#wire" transform="translate(12.0 9.0) rotate(180)" />
  <use href="#wire" transform="translate(11.0 9.0) rotate(180)" />
  <use href="#wire" transform="translate(10.0 9.0) rotate(180)" />
  <use href="#wire" transform="translate(9.0 9.0) rotate(180)" />
  <use href="#wire" transform="translate(8.0 9.0) rotate(180)" />
  <use href="#wire" transform="translate(7.0 9.0) rotate(180)" />
  <use href="#terminator" transform="translate(6.0 9.0) rotate(180)" />
  <use href="#wire" transform="translate(5.0 9.0) rotate(270)" />
  <use href="#half-adder-ee-ee" transform="translate(2.5 9.5) rotate(270)" />
  <use href="#half-adder-text" transform="translate(2.5 9.5) rotate(0)" />
  <use href="#and-text" transform="translate(3.0 9.0) rotate(0)" />
  <use href="#wire" transform="translate(1.0 9.0) rotate(270)" />
  <use href="#slow-wire" transform="translate(0.0 9.0) rotate(270)" />
  <use href="#slow-wire" transform="translate(20.0 8.0) rotate(90)" />
  <use href="#wire" transform="translate(19.0 8.0) rotate(90)" />
  <use href="#or-en-e" transform="translate(18.0 8.0) rotate(90)" />
  <use href="#or-text" transform="translate(18.0 8.0) rotate(0)" />
  <use href="#turn-e-n" transform="translate(17.0 8.0) rotate(90)" />
  <use href="#wire" transform="translate(16.0 8.0) rotate(90)" />
  <use href="#wire" transform="translate(15.0 8.0) rotate(90)" />
  <use href="#fork-e-es" transform="translate(14.0 8.0) rotate(90)" />
  <use href="#wire" transform="translate(13.0 8.0) rotate(180)" />
  <use href="#wire" transform="translate(12.0 8.0) rotate(180)" />
  <use href="#wire" transform="translate(11.0 8.0) rotate(180)" />
  <use href="#wire" transform="translate(10.0 8.0) rotate(180)" />
  <use href="#wire" transform="translate(9.0 8.0) rotate(180)" />
  <use href="#wire" transform="translate(8.0 8.0) rotate(180)" />
  <use href="#wire" transform="translate(7.0 8.0) rotate(180)" />
  <use href="#terminator" transform="translate(6.0 8.0) rotate(180)" />
  <use href="#turn-e-n" transform="translate(5.0 8.0) rotate(270)" />
  <use href="#wire" transform="translate(4.0 8.0) rotate(180)" />
  <use href="#or-en-e" transform="translate(3.0 8.0) rotate(270)" />
  <use href="#or-text" transform="translate(3.0 8.0) rotate(0)" />
  <use href="#wire" transform="translate(2.0 8.0) rotate(270)" />
  <use href="#wire" transform="translate(1.0 8.0) rotate(270)" />
  <use href="#wire" transform="translate(0.0 8.0) rotate(270)" />
  <use href="#slow-wire" transform="translate(20.0 7.0) rotate(90)" />
  <use href="#wire" transform="translate(17.0 7.0) rotate(90)" />
  <use href="#wire" transform="translate(16.0 7.0) rotate(90)" />
  <use href="#wire" transform="translate(15.0 7.0) rotate(90)" />
  <use href="#fork-e-es" transform="translate(14.0 7.0) rotate(90)" />
  <use href="#wire" transform="translate(13.0 7.0) rotate(180)" />
  <use href="#wire" transform="translate(12.0 7.0) rotate(180)" />
  <use href="#wire" transform="translate(11.0 7.0) rotate(180)" />
  <use href="#wire" transform="translate(10.0 7.0) rotate(180)" />
  <use href="#wire" transform="translate(9.0 7.0) rotate(180)" />
  <use href="#wire" transform="translate(8.0 7.0) rotate(180)" />
  <use href="#wire" transform="translate(7.0 7.0) rotate(180)" />
  <use href="#terminator" transform="translate(6.0 7.0) rotate(180)" />
  <use href="#turn-e-n" transform="translate(5.0 7.0) rotate(0)" />
  <use href="#wire" transform="translate(4.0 7.0) rotate(0)" />
  <use href="#cross" transform="translate(3.0 7.0) rotate(270)" />
  <use href="#cross" transform="translate(2.0 7.0) rotate(270)" />
  <use href="#turn-e-s" transform="translate(1.0 7.0) rotate(270)" />
  <use href="#wire" transform="translate(0.0 7.0) rotate(270)" />
  <use href="#slow-wire" transform="translate(20.0 6.0) rotate(90)" />
  <use href="#half-adder-ee-ee" transform="translate(18.5 6.5) rotate(90)" />
  <use href="#half-adder-text" transform="translate(18.5 6.5) rotate(0)" />
  <use href="#and-text" transform="translate(18.0 7.0) rotate(0)" />
  <use href="#wire" transform="translate(17.0 6.0) rotate(90)" />
  <use href="#wire" transform="translate(16.0 6.0) rotate(90)" />
  <use href="#fork-e-es" transform="translate(15.0 6.0) rotate(90)" />
  <use href="#fork-e-en" transform="translate(14.0 6.0) rotate(180)" />
  <use href="#wire" transform="translate(13.0 6.0) rotate(180)" />
  <use href="#wire" transform="translate(12.0 6.0) rotate(180)" />
  <use href="#wire" transform="translate(11.0 6.0) rotate(180)" />
  <use href="#wire" transform="translate(10.0 6.0) rotate(180)" />
  <use href="#wire" transform="translate(9.0 6.0) rotate(180)" />
  <use href="#wire" transform="translate(8.0 6.0) rotate(180)" />
  <use href="#wire" transform="translate(7.0 6.0) rotate(180)" />
  <use href="#wire" transform="translate(6.0 6.0) rotate(180)" />
  <use href="#cross" transform="translate(5.0 6.0) rotate(180)" />
  <use href="#fork-e-es" transform="translate(4.0 6.0) rotate(180)" />
  <use href="#cross" transform="translate(3.0 6.0) rotate(180)" />
  <use href="#cross" transform="translate(2.0 6.0) rotate(180)" />
  <use href="#turn-e-s" transform="translate(1.0 6.0) rotate(180)" />
  <use href="#wire" transform="translate(0.0 6.0) rotate(270)" />
  <use href="#slow-wire" transform="translate(20.0 5.0) rotate(90)" />
  <use href="#wire" transform="translate(19.0 5.0) rotate(90)" />
  <use href="#turn-e-s" transform="translate(18.0 5.0) rotate(0)" />
  <use href="#cross" transform="translate(17.0 5.0) rotate(0)" />
  <use href="#cross" transform="translate(16.0 5.0) rotate(0)" />
  <use href="#cross" transform="translate(15.0 5.0) rotate(0)" />
  <use href="#wire" transform="translate(14.0 5.0) rotate(0)" />
  <use href="#turn-e-n" transform="translate(13.0 5.0) rotate(90)" />
  <use href="#turn-e-s" transform="translate(12.0 5.0) rotate(90)" />
  <use href="#and-ew-n" transform="translate(11.0 5.0) rotate(0)" />
  <use href="#and-text" transform="translate(11.0 5.0) rotate(0)" />
  <use href="#not" transform="translate(10.0 5.0) rotate(0)" />
  <use href="#fork-e-en" transform="translate(9.0 5.0) rotate(0)" />
  <use href="#turn-e-n" transform="translate(8.0 5.0) rotate(90)" />
  <use href="#wire" transform="translate(5.0 5.0) rotate(270)" />
  <use href="#wire" transform="translate(4.0 5.0) rotate(270)" />
  <use href="#not" transform="translate(3.0 5.0) rotate(270)" />
  <use href="#wire" transform="translate(2.0 5.0) rotate(270)" />
  <use href="#wire" transform="translate(1.0 5.0) rotate(270)" />
  <use href="#wire" transform="translate(0.0 5.0) rotate(270)" />
  <use href="#slow-wire" transform="translate(20.0 4.0) rotate(90)" />
  <use href="#turn-e-n" transform="translate(17.0 4.0) rotate(180)" />
  <use href="#wire" transform="translate(16.0 4.0) rotate(90)" />
  <use href="#turn-e-s" transform="translate(15.0 4.0) rotate(0)" />
  <use href="#fork-e-en" transform="translate(14.0 4.0) rotate(0)" />
  <use href="#cross" transform="translate(13.0 4.0) rotate(0)" />
  <use href="#fork-e-es" transform="translate(12.0 4.0) rotate(0)" />
  <use href="#or-en-e" transform="translate(11.0 4.0) rotate(0)" />
  <use href="#or-text" transform="translate(11.0 4.0) rotate(0)" />
  <use href="#and-es-e" transform="translate(10.0 4.0) rotate(0)" />
  <use href="#and-text" transform="translate(10.0 4.0) rotate(0)" />
  <use href="#slow-turn-e-s" transform="translate(9.0 4.0) rotate(270)" />
  <use href="#wire" transform="translate(8.0 4.0) rotate(90)" />
  <use href="#turn-e-n" transform="translate(6.0 4.0) rotate(0)" />
  <use href="#cross" transform="translate(5.0 4.0) rotate(270)" />
  <use href="#cross" transform="translate(4.0 4.0) rotate(270)" />
  <use href="#and-en-e" transform="translate(3.0 4.0) rotate(0)" />
  <use href="#and-text" transform="translate(3.0 4.0) rotate(0)" />
  <use href="#turn-e-s" transform="translate(2.0 4.0) rotate(270)" />
  <use href="#wire" transform="translate(1.0 4.0) rotate(270)" />
  <use href="#wire" transform="translate(0.0 4.0) rotate(270)" />
  <use href="#slow-wire" transform="translate(20.0 3.0) rotate(90)" />
  <use href="#half-adder-ee-es" transform="translate(18.5 3.5) rotate(90)" />
  <use href="#half-adder-text" transform="translate(18.5 3.5) rotate(0)" />
  <use href="#and-text" transform="translate(18.0 4.0) rotate(0)" />
  <use href="#wire" transform="translate(16.0 3.0) rotate(90)" />
  <use href="#wire" transform="translate(14.0 3.0) rotate(270)" />
  <use href="#wire" transform="translate(13.0 3.0) rotate(90)" />
  <use href="#turn-e-s" transform="translate(10.0 3.0) rotate(0)" />
  <use href="#wire" transform="translate(9.0 3.0) rotate(0)" />
  <use href="#cross" transform="translate(8.0 3.0) rotate(0)" />
  <use href="#wire" transform="translate(7.0 3.0) rotate(0)" />
  <use href="#and-en-e" transform="translate(6.0 3.0) rotate(0)" />
  <use href="#and-text" transform="translate(6.0 3.0) rotate(0)" />
  <use href="#or-en-e" transform="translate(5.0 3.0) rotate(0)" />
  <use href="#or-text" transform="translate(5.0 3.0) rotate(0)" />
  <use href="#turn-e-s" transform="translate(4.0 3.0) rotate(270)" />
  <use href="#wire" transform="translate(1.0 3.0) rotate(270)" />
  <use href="#wire" transform="translate(0.0 3.0) rotate(270)" />
  <use href="#cross" transform="translate(20.0 2.0) rotate(0)" />
  <use href="#fork-e-en" transform="translate(19.0 2.0) rotate(90)" />
  <use href="#wire" transform="translate(18.0 2.0) rotate(90)" />
  <use href="#turn-e-s" transform="translate(16.0 2.0) rotate(0)" />
  <use href="#wire" transform="translate(15.0 2.0) rotate(0)" />
  <use href="#cross" transform="translate(14.0 2.0) rotate(270)" />
  <use href="#cross" transform="translate(13.0 2.0) rotate(0)" />
  <use href="#wire" transform="translate(12.0 2.0) rotate(0)" />
  <use href="#wire" transform="translate(11.0 2.0) rotate(0)" />
  <use href="#wire" transform="translate(10.0 2.0) rotate(0)" />
  <use href="#wire" transform="translate(9.0 2.0) rotate(0)" />
  <use href="#cross" transform="translate(8.0 2.0) rotate(0)" />
  <use href="#wire" transform="translate(7.0 2.0) rotate(0)" />
  <use href="#wire" transform="translate(6.0 2.0) rotate(0)" />
  <use href="#wire" transform="translate(5.0 2.0) rotate(0)" />
  <use href="#wire" transform="translate(2.0 2.0) rotate(0)" />
  <use href="#cross" transform="translate(1.0 2.0) rotate(270)" />
  <use href="#cross" transform="translate(0.0 2.0) rotate(270)" />
  <use href="#cross" transform="translate(20.0 1.0) rotate(0)" />
  <use href="#cross" transform="translate(19.0 1.0) rotate(0)" />
  <use href="#cross" transform="translate(18.0 1.0) rotate(0)" />
  <use href="#wire" transform="translate(17.0 1.0) rotate(0)" />
  <use href="#wire" transform="translate(16.0 1.0) rotate(0)" />
  <use href="#wire" transform="translate(15.0 1.0) rotate(0)" />
  <use href="#turn-e-s" transform="translate(14.0 1.0) rotate(270)" />
  <use href="#turn-e-s" transform="translate(13.0 1.0) rotate(0)" />
  <use href="#wire" transform="translate(12.0 1.0) rotate(0)" />
  <use href="#wire" transform="translate(11.0 1.0) rotate(0)" />
  <use href="#wire" transform="translate(10.0 1.0) rotate(0)" />
  <use href="#wire" transform="translate(9.0 1.0) rotate(0)" />
  <use href="#cross" transform="translate(8.0 1.0) rotate(0)" />
  <use href="#wire" transform="translate(7.0 1.0) rotate(0)" />
  <use href="#wire" transform="translate(6.0 1.0) rotate(0)" />
  <use href="#wire" transform="translate(5.0 1.0) rotate(0)" />
  <use href="#half-adder-ee-ee" transform="translate(3.5 1.5) rotate(0)" />
  <use href="#half-adder-text" transform="translate(3.5 1.5) rotate(0)" />
  <use href="#and-text" transform="translate(4.0 2.0) rotate(0)" />
  <use href="#fork-e-en" transform="translate(2.0 1.0) rotate(0)" />
  <use href="#cross" transform="translate(1.0 1.0) rotate(270)" />
  <use href="#cross" transform="translate(0.0 1.0) rotate(270)" />
  <use href="#turn-e-s" transform="translate(20.0 0.0) rotate(0)" />
  <use href="#cross" transform="translate(19.0 0.0) rotate(0)" />
  <use href="#cross" transform="translate(18.0 0.0) rotate(0)" />
  <use href="#wire" transform="translate(17.0 0.0) rotate(0)" />
  <use href="#wire" transform="translate(16.0 0.0) rotate(0)" />
  <use href="#slow-wire" transform="translate(15.0 0.0) rotate(0)" />
  <use href="#slow-wire" transform="translate(14.0 0.0) rotate(0)" />
  <use href="#slow-wire" transform="translate(13.0 0.0) rotate(0)" />
  <use href="#slow-wire" transform="translate(12.0 0.0) rotate(0)" />
  <use href="#slow-wire" transform="translate(11.0 0.0) rotate(0)" />
  <use href="#slow-wire" transform="translate(10.0 0.0) rotate(0)" />
  <use href="#slow-wire" transform="translate(9.0 0.0) rotate(0)" />
  <use href="#fork-e-es" transform="translate(8.0 0.0) rotate(0)" />
  <use href="#wire" transform="translate(7.0 0.0) rotate(0)" />
  <use href="#wire" transform="translate(6.0 0.0) rotate(0)" />
  <use href="#wire" transform="translate(5.0 0.0) rotate(0)" />
  <use href="#wire" transform="translate(4.0 0.0) rotate(0)" />
  <use href="#wire" transform="translate(3.0 0.0) rotate(0)" />
  <use href="#cross" transform="translate(2.0 0.0) rotate(270)" />
  <use href="#cross" transform="translate(1.0 0.0) rotate(270)" />
  <use href="#turn-e-s" transform="translate(0.0 0.0) rotate(270)" />
  <use href="#teleport-out" transform="translate(19.0 21.0) rotate(90)" />
  <use href="#teleport-in" transform="translate(19.0 -1.0) rotate(90)" />
  <use href="#teleport-out" transform="translate(-1.0 19.0) rotate(180)" />
  <use href="#teleport-in" transform="translate(21.0 19.0) rotate(180)" />
  <use href="#teleport-out" transform="translate(18.0 21.0) rotate(90)" />
  <use href="#teleport-in" transform="translate(18.0 -1.0) rotate(90)" />
  <use href="#teleport-out" transform="translate(-1.0 18.0) rotate(180)" />
  <use href="#teleport-in" transform="translate(21.0 18.0) rotate(180)" />
  <use href="#teleport-out" transform="translate(2.0 -1.0) rotate(270)" />
  <use href="#teleport-in" transform="translate(2.0 21.0) rotate(270)" />
  <use href="#teleport-out" transform="translate(21.0 2.0) rotate(0)" />
  <use href="#teleport-in" transform="translate(-1.0 2.0) rotate(0)" />
  <use href="#teleport-out" transform="translate(1.0 -1.0) rotate(270)" />
  <use href="#teleport-in" transform="translate(1.0 21.0) rotate(270)" />
  <use href="#teleport-out" transform="translate(21.0 1.0) rotate(0)" />
  <use href="#teleport-in" transform="translate(-1.0 1.0) rotate(0)" />
</svg>
